# xmcd
#
# Track frame offsets:
#	150
#	13566
#	30384
#	50216
#	67212
#	81055
#	98362
#	114312
#	128095
#	139135
#	155738
#	171720
#
# Disc length: 2481 seconds
# Revision: 2
# Processed by: cddbd v1.5.2PL0 Copyright (c) Steve Scherf et al.
# Submitted via: dBpowerAMP V12.0
#
DISCID=a109af0c
DTITLE=Graham Rodger - Shadows Across The Moon
DYEAR=2011
DGENRE=Country
TTITLE0=Backwards
TTITLE1=Take this bank and shove it
TTITLE2=The cooper coming down
TTITLE3=Shadows across the moon
TTITLE4=His face says Australia to me
TTITLE5=Wooden Friend
TTITLE6=Tuppence Ha' Penny
TTITLE7=Angels without halos
TTITLE8=Son of a son of a gun
TTITLE9=Goldie
TTITLE10=The life we live
TTITLE11=Uncle Bill's legacy
EXTD=
EXTT0=
EXTT1=
EXTT2=
EXTT3=
EXTT4=
EXTT5=
EXTT6=
EXTT7=
EXTT8=
EXTT9=
EXTT10=
EXTT11=
PLAYORDER=
